<svg width="303" height="56" viewBox="0 0 303 56" fill="none" xmlns="http://www.w3.org/2000/svg">
<path d="M2.42188 41V9H24.7344V15.2812H10.1563V21.8437H23.5938V28.1406H10.1563V34.7187H24.7344V41H2.42188ZM27.7087 41V36.5937L43.2556 15.2812H27.7244V9H53.0369V13.4062L37.49 34.7187H53.0213V41H27.7087ZM63.7005 41V9H77.0442C79.4401 9 81.4453 9.33854 83.0598 10.0156C84.6848 10.6927 85.9036 11.6406 86.7161 12.8594C87.539 14.0781 87.9505 15.4896 87.9505 17.0937C87.9505 18.3125 87.6953 19.401 87.1848 20.3594C86.6744 21.3073 85.9713 22.0937 85.0755 22.7187C84.1796 23.3437 83.1432 23.7812 81.9661 24.0313V24.3437C83.2578 24.4062 84.4505 24.7552 85.5442 25.3906C86.6484 26.026 87.5338 26.9115 88.2005 28.0469C88.8671 29.1719 89.2005 30.5052 89.2005 32.0469C89.2005 33.7656 88.763 35.3021 87.888 36.6562C87.013 38 85.7473 39.0625 84.0911 39.8437C82.4348 40.6146 80.4244 41 78.0598 41H63.7005ZM71.4348 34.7656H76.2161C77.8932 34.7656 79.1276 34.4479 79.9192 33.8125C80.7213 33.1771 81.1223 32.2917 81.1223 31.1562C81.1223 30.3333 80.9296 29.625 80.5442 29.0312C80.1588 28.4271 79.6119 27.9635 78.9036 27.6406C78.1953 27.3073 77.3463 27.1406 76.3567 27.1406H71.4348V34.7656ZM71.4348 22.1562H75.7161C76.5598 22.1562 77.3098 22.0156 77.9661 21.7344C78.6223 21.4531 79.1328 21.0469 79.4973 20.5156C79.8723 19.9844 80.0598 19.3437 80.0598 18.5937C80.0598 17.5208 79.6796 16.6771 78.9192 16.0625C78.1588 15.4479 77.1328 15.1406 75.8411 15.1406H71.4348V22.1562ZM106.644 30.6406V17H114.269V41H106.987V36.5312H106.737C106.206 38 105.3 39.1667 104.019 40.0312C102.748 40.8854 101.211 41.3125 99.4092 41.3125C97.7738 41.3125 96.3363 40.9375 95.0967 40.1875C93.8571 39.4375 92.8936 38.3906 92.2061 37.0469C91.5186 35.6927 91.1696 34.1094 91.1592 32.2969V17H98.7998V30.7969C98.8103 32.099 99.154 33.125 99.8311 33.875C100.508 34.625 101.43 35 102.597 35C103.357 35 104.039 34.8333 104.644 34.5C105.258 34.1562 105.743 33.6615 106.097 33.0156C106.461 32.3594 106.644 31.5677 106.644 30.6406ZM126.137 41.3438C124.367 41.3438 122.757 40.8854 121.309 39.9688C119.861 39.0521 118.705 37.6771 117.841 35.8438C116.976 34.0104 116.544 31.7344 116.544 29.0156C116.544 26.1927 116.992 23.8698 117.887 22.0469C118.783 20.224 119.955 18.875 121.403 18C122.861 17.125 124.429 16.6875 126.106 16.6875C127.367 16.6875 128.445 16.9062 129.341 17.3437C130.236 17.7708 130.976 18.3229 131.559 19C132.143 19.6771 132.585 20.3802 132.887 21.1094H133.044V9H140.684V41H133.122V37.1094H132.887C132.565 37.849 132.106 38.5417 131.512 39.1875C130.919 39.8333 130.174 40.3542 129.278 40.75C128.393 41.1458 127.346 41.3438 126.137 41.3438ZM128.794 35.3906C129.721 35.3906 130.512 35.1302 131.169 34.6094C131.825 34.0781 132.33 33.3333 132.684 32.375C133.039 31.4167 133.216 30.2917 133.216 29C133.216 27.6875 133.039 26.5573 132.684 25.6094C132.341 24.6615 131.835 23.9323 131.169 23.4219C130.512 22.9115 129.721 22.6562 128.794 22.6562C127.846 22.6562 127.044 22.9167 126.387 23.4375C125.731 23.9583 125.231 24.6927 124.887 25.6406C124.554 26.5885 124.387 27.7083 124.387 29C124.387 30.2917 124.559 31.4167 124.903 32.375C125.247 33.3333 125.742 34.0781 126.387 34.6094C127.044 35.1302 127.846 35.3906 128.794 35.3906ZM154.944 50.5C152.663 50.5 150.71 50.1823 149.085 49.5469C147.46 48.9115 146.183 48.0417 145.256 46.9375C144.329 45.8333 143.772 44.5833 143.585 43.1875L150.819 42.7813C150.954 43.2708 151.204 43.6979 151.569 44.0625C151.944 44.4271 152.428 44.7083 153.022 44.9063C153.626 45.1042 154.335 45.2031 155.147 45.2031C156.428 45.2031 157.486 44.8906 158.319 44.2656C159.163 43.651 159.585 42.5729 159.585 41.0313V36.8125H159.319C159.017 37.5521 158.558 38.2135 157.944 38.7969C157.329 39.3802 156.564 39.8385 155.647 40.1719C154.741 40.5052 153.699 40.6719 152.522 40.6719C150.772 40.6719 149.168 40.2656 147.71 39.4531C146.262 38.6302 145.1 37.3594 144.225 35.6406C143.361 33.9115 142.928 31.6875 142.928 28.9688C142.928 26.1667 143.376 23.8594 144.272 22.0469C145.168 20.224 146.34 18.875 147.788 18C149.246 17.125 150.814 16.6875 152.491 16.6875C153.751 16.6875 154.829 16.9062 155.725 17.3437C156.631 17.7708 157.376 18.3229 157.96 19C158.543 19.6771 158.986 20.3802 159.288 21.1094H159.506V17H167.116V41.0938C167.116 43.125 166.605 44.8385 165.585 46.2344C164.564 47.6302 163.137 48.6875 161.303 49.4063C159.47 50.1354 157.35 50.5 154.944 50.5ZM155.178 35.1094C156.105 35.1094 156.897 34.8646 157.553 34.375C158.21 33.8854 158.715 33.1823 159.069 32.2656C159.423 31.349 159.6 30.25 159.6 28.9688C159.6 27.6667 159.423 26.5469 159.069 25.6094C158.725 24.6615 158.22 23.9323 157.553 23.4219C156.897 22.9115 156.105 22.6562 155.178 22.6562C154.23 22.6562 153.428 22.9167 152.772 23.4375C152.116 23.9583 151.616 24.6927 151.272 25.6406C150.939 26.5781 150.772 27.6875 150.772 28.9688C150.772 30.25 150.944 31.349 151.288 32.2656C151.631 33.1823 152.126 33.8854 152.772 34.375C153.428 34.8646 154.23 35.1094 155.178 35.1094ZM181.446 41.4531C178.935 41.4531 176.769 40.9583 174.946 39.9688C173.133 38.9687 171.737 37.5469 170.758 35.7031C169.789 33.849 169.305 31.6458 169.305 29.0937C169.305 26.6146 169.795 24.4479 170.774 22.5937C171.753 20.7292 173.133 19.2812 174.914 18.25C176.696 17.2083 178.795 16.6875 181.211 16.6875C182.92 16.6875 184.482 16.9531 185.899 17.4844C187.315 18.0156 188.539 18.8021 189.571 19.8437C190.602 20.8854 191.404 22.1719 191.977 23.7031C192.55 25.224 192.836 26.9687 192.836 28.9375V30.8437H171.977V26.4062H185.727C185.716 25.5937 185.524 24.8698 185.149 24.2344C184.774 23.599 184.258 23.1042 183.602 22.75C182.956 22.3854 182.211 22.2031 181.367 22.2031C180.513 22.2031 179.748 22.3958 179.071 22.7812C178.394 23.1563 177.857 23.6719 177.461 24.3281C177.065 24.974 176.857 25.7083 176.836 26.5312V31.0469C176.836 32.026 177.029 32.8854 177.414 33.625C177.8 34.3542 178.347 34.9219 179.055 35.3281C179.763 35.7344 180.607 35.9375 181.586 35.9375C182.263 35.9375 182.878 35.8437 183.43 35.6562C183.982 35.4688 184.456 35.1927 184.852 34.8281C185.248 34.4635 185.545 34.0156 185.742 33.4844L192.758 33.6875C192.466 35.2604 191.826 36.6302 190.836 37.7969C189.857 38.9531 188.571 39.8542 186.977 40.5C185.383 41.1354 183.539 41.4531 181.446 41.4531ZM208.525 17V22.625H193.385V17H208.525ZM196.557 11.25H204.197V33.4531C204.197 33.9219 204.27 34.3021 204.416 34.5937C204.572 34.875 204.796 35.0781 205.088 35.2031C205.38 35.3177 205.729 35.375 206.135 35.375C206.427 35.375 206.734 35.349 207.057 35.2969C207.39 35.2344 207.64 35.1823 207.807 35.1406L208.963 40.6562C208.598 40.7604 208.083 40.8906 207.416 41.0469C206.76 41.2031 205.973 41.3021 205.057 41.3438C203.265 41.4271 201.729 41.2187 200.447 40.7187C199.177 40.2083 198.203 39.4167 197.525 38.3437C196.859 37.2708 196.536 35.9219 196.557 34.2969V11.25ZM225.279 41H216.966L227.763 9H238.06L248.857 41H240.545L233.029 17.0625H232.779L225.279 41ZM224.17 28.4062H241.545V34.2812H224.17V28.4062ZM250.542 50V17H258.105V21.1094H258.339C258.652 20.3802 259.094 19.6771 259.667 19C260.251 18.3229 260.99 17.7708 261.886 17.3437C262.792 16.9062 263.876 16.6875 265.136 16.6875C266.803 16.6875 268.36 17.125 269.808 18C271.266 18.875 272.443 20.224 273.339 22.0469C274.235 23.8698 274.683 26.1927 274.683 29.0156C274.683 31.7344 274.251 34.0104 273.386 35.8438C272.532 37.6771 271.376 39.0521 269.917 39.9688C268.469 40.8854 266.86 41.3438 265.089 41.3438C263.881 41.3438 262.834 41.1458 261.949 40.75C261.063 40.3542 260.318 39.8333 259.714 39.1875C259.12 38.5417 258.662 37.849 258.339 37.1094H258.183V50H250.542ZM258.027 29C258.027 30.2917 258.199 31.4167 258.542 32.375C258.897 33.3333 259.402 34.0781 260.058 34.6094C260.725 35.1302 261.522 35.3906 262.449 35.3906C263.386 35.3906 264.183 35.1302 264.839 34.6094C265.495 34.0781 265.99 33.3333 266.324 32.375C266.667 31.4167 266.839 30.2917 266.839 29C266.839 27.7083 266.667 26.5885 266.324 25.6406C265.99 24.6927 265.495 23.9583 264.839 23.4375C264.193 22.9167 263.397 22.6562 262.449 22.6562C261.511 22.6562 260.714 22.9115 260.058 23.4219C259.402 23.9323 258.897 24.6615 258.542 25.6094C258.199 26.5573 258.027 27.6875 258.027 29ZM276.927 50V17H284.489V21.1094H284.724C285.036 20.3802 285.479 19.6771 286.052 19C286.635 18.3229 287.375 17.7708 288.271 17.3437C289.177 16.9062 290.26 16.6875 291.521 16.6875C293.187 16.6875 294.745 17.125 296.193 18C297.651 18.875 298.828 20.224 299.724 22.0469C300.62 23.8698 301.068 26.1927 301.068 29.0156C301.068 31.7344 300.635 34.0104 299.771 35.8438C298.916 37.6771 297.76 39.0521 296.302 39.9688C294.854 40.8854 293.245 41.3438 291.474 41.3438C290.265 41.3438 289.219 41.1458 288.333 40.75C287.448 40.3542 286.703 39.8333 286.099 39.1875C285.505 38.5417 285.047 37.849 284.724 37.1094H284.568V50H276.927ZM284.411 29C284.411 30.2917 284.583 31.4167 284.927 32.375C285.281 33.3333 285.786 34.0781 286.443 34.6094C287.109 35.1302 287.906 35.3906 288.833 35.3906C289.771 35.3906 290.568 35.1302 291.224 34.6094C291.88 34.0781 292.375 33.3333 292.708 32.375C293.052 31.4167 293.224 30.2917 293.224 29C293.224 27.7083 293.052 26.5885 292.708 25.6406C292.375 24.6927 291.88 23.9583 291.224 23.4375C290.578 22.9167 289.781 22.6562 288.833 22.6562C287.896 22.6562 287.099 22.9115 286.443 23.4219C285.786 23.9323 285.281 24.6615 284.927 25.6094C284.583 26.5573 284.411 27.6875 284.411 29Z" fill="#2A2CAB"/>
</svg>
